<svg preserveAspectRatio="none" width="100%" height="100%" overflow="visible" style="display: block;" viewBox="0 0 49 49" fill="none" xmlns="http://www.w3.org/2000/svg">
<g id="mdi:chess-king">
<path id="Vector" d="M38.7917 44.9167H10.2083V40.8333H38.7917V44.9167ZM34.7083 20.4167C31.8092 20.4167 29.1142 21.9887 27.6646 24.5H26.5417V14.2917H32.6667V10.2083H26.5417V4.08333H22.4583V10.2083H16.3333V14.2917H22.4583V24.5H21.3354C19.0896 20.6004 14.0875 19.2529 10.2083 21.5192C8.32773 22.5948 6.94972 24.3716 6.37579 26.4607C5.80186 28.5498 6.07874 30.7812 7.14583 32.6667C8.65667 35.1983 11.3721 36.75 14.2917 36.75H34.7083C36.8743 36.75 38.9515 35.8896 40.483 34.358C42.0146 32.8265 42.875 30.7493 42.875 28.5833C42.875 26.4174 42.0146 24.3402 40.483 22.8086C38.9515 21.2771 36.8743 20.4167 34.7083 20.4167V20.4167Z" fill="var(--fill-0, white)"/>
</g>
</svg>
