<svg preserveAspectRatio="none" width="100%" height="100%" overflow="visible" style="display: block;" viewBox="0 0 49 49" fill="none" xmlns="http://www.w3.org/2000/svg">
<g id="mdi:chess-knight">
<path id="Vector" d="M38.7917 44.9167H10.2083V40.8333H38.7917V44.9167ZM26.5417 4.08333C23.9896 4.08333 21.6008 5.34917 20.1921 7.4725L14.2917 16.3333L18.375 20.4167L22.5808 17.6196C23.4792 16.9867 24.7858 17.2317 25.4187 18.1708C25.4596 18.2321 25.5208 18.2933 25.5208 18.375C26.1333 19.5796 25.9088 21.0292 24.9492 21.9887L15.1492 31.7887C14.0262 32.9321 14.0262 34.7696 15.1696 35.8925C15.7004 36.4233 16.4354 36.75 17.1908 36.75H34.7083V12.25C34.7083 10.0841 33.8479 8.00684 32.3164 6.47529C30.7848 4.94375 28.7076 4.08333 26.5417 4.08333Z" fill="var(--fill-0, white)"/>
</g>
</svg>
