<svg preserveAspectRatio="none" width="100%" height="100%" overflow="visible" style="display: block;" viewBox="0 0 49 49" fill="none" xmlns="http://www.w3.org/2000/svg">
<g id="mdi:chess-bishop">
<path id="Vector" d="M38.7917 44.9167H10.2083V40.8333H38.7917V44.9167ZM35.035 16.8642C37.1975 19.6584 38.5025 23.0202 38.7917 26.5417C38.7917 32.1767 32.4013 36.75 24.5 36.75C16.5988 36.75 10.2083 32.1767 10.2083 26.5417C10.2083 21.6825 14.9654 13.0462 21.3558 10.7596C20.7433 10.0246 20.4167 9.10583 20.4167 8.16667C20.4167 7.0837 20.8469 6.04509 21.6126 5.27931C22.3784 4.51354 23.417 4.08333 24.5 4.08333C25.583 4.08333 26.6216 4.51354 27.3874 5.27931C28.1531 6.04509 28.5833 7.0837 28.5833 8.16667C28.5833 9.10583 28.2567 10.0246 27.6442 10.7596C29.4 11.4333 30.9925 12.4542 32.34 13.7608L23.0504 23.0504L25.9496 25.9496L35.035 16.8642V16.8642Z" fill="var(--fill-0, white)"/>
</g>
</svg>
