<svg preserveAspectRatio="none" width="100%" height="100%" overflow="visible" style="display: block;" viewBox="0 0 98 98" fill="none" xmlns="http://www.w3.org/2000/svg">
<g id="mdi:chess-pawn">
<path id="Vector" d="M77.5833 89.8333H20.4167V81.6667H77.5833V89.8333ZM65.3333 73.5H32.6667L41.5683 40.8333H32.6667V32.6667H43.7733L44.0592 31.605C41.2424 30.3808 38.9951 28.1334 37.7708 25.3167C35.035 19.11 37.8525 11.8825 44.0592 9.1875C50.2658 6.45167 57.4933 9.26917 60.1883 15.4758C60.8388 16.9472 61.1922 18.5326 61.228 20.1409C61.2638 21.7492 60.9814 23.3488 60.397 24.8476C59.8127 26.3465 58.9379 27.715 57.8229 28.8747C56.7079 30.0344 55.3747 30.9622 53.9 31.605L54.1858 32.6667H65.3333V40.8333H56.4317L65.3333 73.5Z" fill="var(--fill-0, #1A1363)"/>
</g>
</svg>
