<svg preserveAspectRatio="none" width="100%" height="100%" overflow="visible" style="display: block;" viewBox="0 0 47 47" fill="none" xmlns="http://www.w3.org/2000/svg">
<g id="mdi:facebook-messenger">
<path id="Vector" d="M23.5 3.91667C12.455 3.91667 3.91667 12.0046 3.91667 22.9125C3.91667 28.6113 6.24708 33.5658 10.0658 36.9538C10.3792 37.2083 10.575 37.6392 10.5946 38.07L10.6925 41.5558C10.7708 42.6721 11.8871 43.3967 12.9054 42.9463L16.7829 41.2425C17.1158 41.125 17.4879 41.0663 17.8208 41.125C19.5833 41.6538 21.5417 41.9083 23.5 41.9083C34.545 41.9083 43.0833 33.8204 43.0833 22.9125C43.0833 12.0046 34.545 3.91667 23.5 3.91667ZM35.25 18.5258L29.5121 27.6713C28.5917 29.1008 26.6333 29.4729 25.2625 28.3958L20.68 25.0079C20.4766 24.8554 20.2292 24.7729 19.975 24.7729C19.7208 24.7729 19.4734 24.8554 19.27 25.0079L13.0817 29.7079C12.2592 30.3542 11.1821 29.375 11.75 28.4742L17.4879 19.3288C18.4083 17.8992 20.3667 17.5271 21.7375 18.5454L26.32 21.9921C26.5234 22.1446 26.7708 22.2271 27.025 22.2271C27.2792 22.2271 27.5266 22.1446 27.73 21.9921L33.9183 17.2921C34.7408 16.6458 35.8179 17.625 35.25 18.5258V18.5258Z" fill="var(--fill-0, white)"/>
</g>
</svg>
